<svg id="Capa_1" enable-background="new 0 0 512 512" height="512" viewBox="0 0 512 512" width="512" xmlns="http://www.w3.org/2000/svg"><g><path d="m154.151 0h285.674v512h-285.674z" fill="#8a6645"/><path d="m401.324 512h110.676v-468.991l-10-20.926 10-21.499v-.584h-110.676v.488l10 24.512-10 17.914z" fill="#b08763"/><path d="m401.324.488v42.426l55.385 55.386 55.291-55.29v-42.426l-55.291 55.29z" fill="#73553a"/><g><path d="m30.651 274.435-30.651-75.178h217.479l30.651 75.178v10z" fill="#b08763"/><path d="m248.13 274.435 64.595-75.178 131.271.082-64.514 75.096-131.352 10z" fill="#a07651"/><path d="m30.651 274.435h229.804v237.565h-229.804z" fill="#8a6645"/><path d="m248.13 274.435h131.352v237.565h-131.352z" fill="#73553a" transform="matrix(-1 0 0 -1 627.612 786.435)"/></g></g></svg>