<svg id="Capa_1" enable-background="new 0 0 512.005 512.005" height="512" viewBox="0 0 512.005 512.005" width="512" xmlns="http://www.w3.org/2000/svg"><g><path d="m112.893 13.067c-1.072-4.002-5.185-6.376-9.187-5.304l-77.705 20.821c-4.002 1.072-6.376 5.185-5.304 9.187l7.269 27.129c.657 2.453 3.179 3.909 5.632 3.252l83.313-22.324c2.453-.657 3.909-3.179 3.252-5.632z" fill="#4073c8"/><path d="m30.347 73.783 5.309 19.815c1.072 4.002 5.185 6.376 9.187 5.304l77.705-20.821c4.002-1.072 6.376-5.185 5.304-9.187l-5.309-19.815c-.657-2.453-3.179-3.909-5.632-3.252l-83.313 22.324c-2.453.657-3.908 3.178-3.251 5.632z" fill="#3b66c1"/><path d="m487.204 326.922h-276.044v17.917c0 6.352-5.149 11.501-11.501 11.501h287.545c2.408 0 4.36-1.952 4.36-4.36v-20.697c.001-2.408-1.951-4.361-4.36-4.361z" fill="#9bb9c1"/><path d="m199.659 356.34c6.352 0 11.501 5.149 11.501 11.501v26.387c0 6.352-5.149 11.501-11.501 11.501 6.352 0 11.501 5.149 11.501 11.501v26.387c0 6.352-5.149 11.501-11.501 11.501 6.352 0 11.501 5.149 11.501 11.501v22.299c0 8.609-6.979 15.588-15.588 15.588h190.313c27.08 0 50.783-18.188 57.792-44.345l27.818-103.82h-271.836z" fill="#86a0af"/><path d="m426.136 356.34-11.789 43.996c-13.303 49.647-58.293 84.169-109.691 84.169h-93.496v4.412c0 8.609-6.979 15.588-15.588 15.588h190.313c27.08 0 50.783-18.188 57.792-44.345l27.818-103.82z" fill="#738b95"/><path d="m211.16 344.839v-106.93c0-9.142-1.198-18.245-3.565-27.076l-7.85-29.297c-7.813-29.157-29.385-50.952-55.859-60.272-9.169-3.228-16.264-10.605-18.78-19.995l-5.968-22.274-70.884 18.993 5.968 22.274c2.516 9.39.06 19.326-6.267 26.707-18.267 21.308-26.052 50.97-18.24 80.127l11.969 44.671c-4.069 3.658-6.553 8.947-6.553 14.696v58.378c0 6.352 5.149 11.501 11.501 11.501-6.352 0-11.501 5.149-11.501 11.501v26.387c0 6.352 5.149 11.501 11.501 11.501-6.352 0-11.501 5.149-11.501 11.501v26.387c0 6.352 5.149 11.501 11.501 11.501-6.352 0-11.501 5.149-11.501 11.501v22.299c0 8.609 6.979 15.588 15.588 15.588h144.851c8.609 0 15.588-6.979 15.588-15.588v-22.299c0-6.352-5.149-11.501-11.501-11.501 6.352 0 11.501-5.149 11.501-11.501v-26.387c0-6.352-5.149-11.501-11.501-11.501 6.352 0 11.501-5.149 11.501-11.501v-26.387c0-6.352-5.149-11.501-11.501-11.501 6.354-.002 11.503-5.151 11.503-11.503z" fill="#b1e4f9"/><path d="m171.16 446.618c0 20.925-16.963 37.887-37.887 37.887h-98.14v4.412c0 8.609 6.979 15.588 15.588 15.588h144.851c8.609 0 15.588-6.979 15.588-15.588v-22.299c0-6.352-5.149-11.501-11.501-11.501 6.352 0 11.501-5.149 11.501-11.501v-26.387c0-6.352-5.149-11.501-11.501-11.501 6.352 0 11.501-5.149 11.501-11.501v-26.387c0-6.352-5.149-11.501-11.501-11.501 6.352 0 11.501-5.149 11.501-11.501v-106.93c0-9.142-1.198-18.245-3.565-27.076l-7.85-29.297c-7.813-29.157-29.385-50.952-55.859-60.272-9.169-3.228-16.264-10.605-18.78-19.995l-5.968-22.274-31.571 8.459c3.461 6.405 9.278 11.331 16.319 13.81 26.474 9.32 48.047 31.115 55.859 60.272l7.85 29.297c2.366 8.831 3.565 17.934 3.565 27.076z" fill="#90d8f9"/><path d="m460.557 133.317h-217.016c-3.827 0-6.93 3.103-6.93 6.93v14.346c0 3.827 3.103 6.93 6.93 6.93h217.016c3.827 0 6.93-3.103 6.93-6.93v-14.346c0-3.827-3.103-6.93-6.93-6.93z" fill="#f1f4f6"/><path d="m429.681 326.922 14.471-165.399h-184.205l14.47 165.399z" fill="#dfeaef"/><path d="m402.402 161.523-6.948 79.421c-3.266 37.334-34.527 65.979-72.003 65.979h-50.783l1.75 20h155.264l14.471-165.399h-41.751z" fill="#d0e2e7"/><path d="m440.673 201.283c4.161.357 7.766-2.718 8.125-6.818l2.226-25.442h9.533c7.956 0 14.43-6.473 14.43-14.43v-14.346c0-7.957-6.474-14.43-14.43-14.43h-217.016c-7.957 0-14.43 6.473-14.43 14.43v14.346c0 7.957 6.473 14.43 14.43 14.43h9.533l13.158 150.399h-47.572v-81.514c0-9.794-1.285-19.557-3.82-29.017l-7.85-29.297c-8.164-30.467-30.823-54.917-60.613-65.405-6.944-2.445-12.188-8.001-14.026-14.862l-4.165-15.544c5.683-3.329 8.696-10.167 6.912-16.831l-5.31-19.814c-.416-1.552-1.12-2.977-2.067-4.217.196-1.518.107-3.098-.313-4.666l-7.269-27.129c-1.037-3.87-3.52-7.105-6.99-9.108-3.471-2.004-7.512-2.537-11.383-1.499l-20.009 5.36c-4.001 1.072-6.375 5.185-5.303 9.186s5.183 6.374 9.186 5.303l20.009-5.361 6.518 24.326c-6.227 1.669-66.093 17.709-77.707 20.821l-6.518-24.327 23.465-6.288c4.001-1.072 6.375-5.185 5.303-9.186-1.072-4-5.184-6.373-9.186-5.303l-23.464 6.289c-7.989 2.141-12.747 10.382-10.607 18.373l7.27 27.128c.42 1.568 1.132 2.982 2.062 4.199-.2 1.547-.098 3.133.318 4.685l5.31 19.814c1.835 6.849 7.997 11.097 14.402 11.125l4.164 15.539c1.839 6.862.076 14.295-4.716 19.884-20.556 23.978-27.954 56.482-19.79 86.949l10.904 40.694c-3.69 4.75-5.743 10.639-5.743 16.732v58.377c0 4.319 1.449 8.306 3.885 11.501-2.437 3.195-3.885 7.182-3.885 11.501v26.387c0 4.319 1.448 8.306 3.885 11.5-2.437 3.195-3.885 7.182-3.885 11.501v26.387c0 4.319 1.449 8.306 3.885 11.501-2.437 3.195-3.885 7.182-3.885 11.501v22.299c0 12.731 10.357 23.088 23.088 23.088h335.165c30.419 0 57.163-20.521 65.036-49.904l26.329-98.261h9.954c6.54 0 11.86-5.32 11.86-11.86v-20.697c0-6.54-5.32-11.86-11.86-11.86h-49.338l7.855-89.788c.36-4.126-2.691-7.764-6.818-8.125-4.099-.356-7.764 2.691-8.125 6.818l-7.969 91.095h-141.521l-13.158-150.399h167.835l-2.112 24.135c-.36 4.126 2.691 7.764 6.818 8.125zm-394.04 246.334c-2.206 0-4.001-1.795-4.001-4.001v-26.387c0-2.206 1.795-4.001 4.001-4.001h153.027c2.206 0 4 1.795 4 4.001v26.387c0 2.206-1.794 4.001-4 4.001zm153.027-83.777c2.206 0 4 1.795 4 4.001v26.387c0 2.206-1.794 4-4 4h-153.027c-2.206 0-4.001-1.794-4.001-4v-26.387c0-2.206 1.795-4.001 4.001-4.001zm15.115 91.277c2.437-3.195 3.885-7.182 3.885-11.501v-26.387c0-4.319-1.448-8.306-3.885-11.501 2.437-3.195 3.885-7.182 3.885-11.5v-26.387c0-1.372-.146-2.711-.424-4.001h16.394v133.165h-17.432c.945-2.518 1.462-5.244 1.462-8.088v-22.299c0-4.319-1.448-8.306-3.885-11.501zm-98.726-401.294 4.558 17.013c-135.469 36.297-27.687 7.418-77.707 20.82l-4.559-17.012zm-62.4 98.026c8.016-9.349 10.938-21.884 7.817-33.529l-4.027-15.029 56.395-15.111 4.027 15.029c3.121 11.645 11.918 21.039 23.534 25.128 25.119 8.843 44.224 29.456 51.105 55.139l7.85 29.297c2.196 8.194 3.309 16.651 3.309 25.135v106.93c0 2.206-1.794 4.001-4 4.001h-153.026c-2.206 0-4.001-1.795-4.001-4.001v-58.377c0-5.493 3.68-10.391 9.083-11.837l109.444-29.326c4.001-1.072 6.375-5.185 5.304-9.186-1.072-4-5.186-6.374-9.186-5.303-115.884 31.067-109.502 29.305-110.833 29.74l-9.484-35.395c-6.882-25.683-.643-53.087 16.689-73.305zm-11.017 337.068v-22.299c0-2.206 1.795-4.001 4.001-4.001h153.027c2.206 0 4 1.795 4 4.001v22.299c0 4.46-3.628 8.088-8.088 8.088h-144.851c-4.46 0-8.089-3.628-8.089-8.088zm263.854-125.077h41.755l-12.771 95.324c-3.174 23.687-13.405 37.841-21.463 37.841h-20.632c4.177-10.94 5.909-25.659 6.625-36.344zm98.511 0-19.059 94.842c-4.535 22.564-19.336 38.323-35.992 38.323h-11.998c6.017-8.852 10.426-21.191 12.39-35.849l13.038-97.316zm31.436 94.379c-6.119 22.836-26.905 38.786-50.548 38.786h-2.946c8.482-8.823 14.827-21.053 17.704-35.368l19.653-97.797h41.426zm47.632-123.796v14.417c-23.5 0-170.532 0-194.239 0-4.143 0-7.5 3.358-7.5 7.5s3.357 7.5 7.5 7.5h1.626l-6.419 95.818c-1.535 22.922-5.931 34.49-8.246 37.347h-27.157v-133.165h5.196c4.142 0 7.5-3.358 7.5-7.5s-3.357-7.5-7.5-7.5h-36.59c.23-1.049.384-2.256.418-3.528.009-.363.006.212.006-10.89h265.405zm-239.954-193.606h215.875v13.207h-215.875z"/></g></svg>